# xmcd
#
# Track frame offsets:
#	150
#	16669
#	43631
#	70331
#	84881
#	112106
#	133406
#	170681
#	221756
#	263006
#	290418
#	307818
#
# Disc length: 4426 seconds
#
# Revision: 1
# Processed by: cddbd v1.4PL0 Copyright (c) Steve Scherf et al.
# Submitted via: audiograbber 1.81.03
#
DISCID=a911480c
DTITLE=Eric Steckel - A Few Degrees Warmer
DYEAR=2002
DGENRE=Blues
TTITLE0=Rude Mood
TTITLE1=Red House
TTITLE2=Hideaway
TTITLE3=Crossroads
TTITLE4=The Sad Nite Owl
TTITLE5=Jaywalkin'
TTITLE6=Where I  Play My Blues
TTITLE7=Lenny
TTITLE8=The Sky Is Crying
TTITLE9=Bad Dog Blues
TTITLE10=The Thrill Is Gone
TTITLE11=Steppin' Out
EXTD=
EXTT0=
EXTT1=
EXTT2=
EXTT3=
EXTT4=
EXTT5=
EXTT6=
EXTT7=
EXTT8=
EXTT9=
EXTT10=
EXTT11=
PLAYORDER=
